<svg xmlns="http://www.w3.org/2000/svg" viewBox="0 0 360 240"><defs><marker id="arrow" markerWidth="8" markerHeight="8" refX="7" refY="4" orient="auto"><path d="M0 0L8 4L0 8" fill="#327dab"/></marker></defs><style>text{font-family:Meiryo,sans-serif;font-size:17px;fill:#16324f} .line{fill:none;stroke:#327dab;stroke-width:3;marker-end:url(#arrow)} .box{fill:#edf6fb;stroke:#64879f;stroke-width:3} .gas{fill:#327dab}</style><text x="25" y="28">気体分子を出口側へ送る</text><rect class="box" x="85" y="50" width="190" height="150" rx="15"/><g stroke="#64879f" stroke-width="9"><path d="M108 83L143 105M161 83L196 105M214 83L249 105M108 138L143 160M161 138L196 160M214 138L249 160"/></g><path class="line" d="M181 37L181 66M148 115L166 130M191 173L191 221"/><circle cx="178" cy="49" r="5" fill="#327dab"/><circle cx="145" cy="113" r="5" fill="#327dab"/><circle cx="186" cy="180" r="5" fill="#327dab"/><text x="14" y="227">高速の羽根 → 前段側のポンプへ</text></svg>